<?xml version="1.0" encoding="UTF-8" standalone="no"?>
<!-- Created with Inkscape (http://www.inkscape.org/) -->

<svg
   version="1.1"
   id="svg132"
   width="445"
   height="407.66666"
   viewBox="0 0 445 407.66666"
   xmlns="http://www.w3.org/2000/svg"
   xmlns:svg="http://www.w3.org/2000/svg">
  <defs
     id="defs136">
    <clipPath
       clipPathUnits="userSpaceOnUse"
       id="clipPath148">
      <path
         d="M 0,305.75 H 333.75 V 0 H 0 Z"
         id="path146" />
    </clipPath>
    <linearGradient
       x1="0"
       y1="0"
       x2="1"
       y2="0"
       gradientUnits="userSpaceOnUse"
       gradientTransform="matrix(288.999,0,0,288.999,-88.1758,304.1113)"
       spreadMethod="pad"
       id="linearGradient160">
      <stop
         style="stop-opacity:1;stop-color:#dd5f6d"
         offset="0"
         id="stop152" />
      <stop
         style="stop-opacity:1;stop-color:#dd5f6d"
         offset="0.0579959"
         id="stop154" />
      <stop
         style="stop-opacity:1;stop-color:#ea9c93"
         offset="0.640705"
         id="stop156" />
      <stop
         style="stop-opacity:1;stop-color:#fdeabe"
         offset="1"
         id="stop158" />
    </linearGradient>
  </defs>
  <g
     id="g140"
     transform="matrix(1.3333333,0,0,-1.3333333,0,407.66667)">
    <g
       id="g142">
      <g
         id="g144"
         clip-path="url(#clipPath148)">
        <g
           id="g150"
           transform="translate(114.4515,155.0593)">
          <path
             d="M 0,0 -0.128,33.894 M 0,53.256 -10.329,53.27 c 0,0 7.395,-6.021 9.982,-19.426 m 0.096,-0.196 C 2.33,47.187 9.807,53.249 9.807,53.249 L -0.52,53.258 M -0.388,74.457 -0.52,53.258 m 0.259,40.561 -10.328,0.014 c 0,0 7.394,-6.021 9.982,-19.426 m 0.096,-0.196 C 2.069,87.75 9.547,93.812 9.547,93.812 L -0.78,93.821 M -31.043,0 -31.171,74.457 m 0.128,19.362 -10.329,0.014 c 0,0 7.395,-6.021 9.982,-19.426 m 0.096,-0.196 c 2.581,13.539 10.058,19.601 10.058,19.601 l -10.327,0.009 m 181.181,-160.908 13.176,-4.189 m -13.172,4.056 c -10.163,6.069 -13.74,-0.045 -13.74,-0.045 m -2.511,-11.602 3.285,15.182 m 13.11,-3.512 c -8.705,3.783 -11.686,9.048 -11.686,9.048 l -1.501,-5.832 m 1.28,4.971 0.297,32.003 m 0.008,13.401 -6.023,-0.023 c 0,0 4.333,-4.142 5.888,-13.415 m 0.059,-0.134 c 1.455,9.379 5.792,13.597 5.792,13.597 l -6.021,-0.025 m 8.981,-18.924 15.954,1.204 m -15.94,-1.132 c -5.174,0.395 -7.665,2.572 -7.665,2.572 l 0.285,-3.312 m -0.015,0.168 0.285,-3.311 c 0,0 2.103,2.593 7.187,3.857 m -9.072,-26.526 -36.153,17.667 m -0.025,-0.13 c -8.954,2.868 -14.622,0.916 -14.622,0.916 m -7.24,-14.72 9.981,20.083 m 12.027,-6.288 c -7.669,5.591 -9.429,11.38 -9.429,11.38 l -2.739,-5.363 m 21.898,40.428 27.632,-28.424 M 111.673,5.026 c -5.407,7.692 -5.233,13.684 -5.233,13.684 l -4.303,-4.215 m 0.218,0.215 -4.303,-4.212 c 0,0 6.049,0.045 13.673,-5.609 M 92.457,-28.982 v 24.236 m 0.126,-0.041 c 1.779,9.233 6.211,13.27 6.211,13.27 l -6.021,0.168 m 0.305,-0.008 -6.019,0.17 c 0,0 4.235,-4.321 5.462,-13.732 m 31.552,-96.88 c 13.75,-11.25 58.75,-13.75 58.75,-13.75 -16.25,15 -10.952,32.161 -10.952,32.161 14.403,13.037 23.452,31.882 23.452,52.839 0,39.351 -31.9,71.25 -71.25,71.25 -39.351,0 -71.25,-31.899 -71.25,-71.25 0,-39.35 31.899,-71.25 71.25,-71.25 m -135.499,78.125 c -13.75,-11.25 -58.75,-13.75 -58.75,-13.75 16.25,15 10.952,32.161 10.952,32.161 -14.403,13.037 -23.452,31.882 -23.452,52.839 0,39.351 31.9,71.25 71.25,71.25 39.35,0 71.25,-31.899 71.25,-71.25 0,-39.35 -31.9,-71.25 -71.25,-71.25"
             style="fill:none;stroke:url(#linearGradient160);stroke-width:11;stroke-linecap:round;stroke-linejoin:round;stroke-miterlimit:10;stroke-dasharray:none;stroke-opacity:1"
             id="path162" />
        </g>
      </g>
    </g>
  </g>
</svg>
