<?xml version="1.0" encoding="UTF-8" standalone="no"?>
<!-- Created with Inkscape (http://www.inkscape.org/) -->

<svg
   width="189mm"
   height="113mm"
   viewBox="0 0 189 113"
   version="1.1"
   id="svg5"
   xml:space="preserve"
   inkscape:version="1.2.2 (b0a8486, 2022-12-01)"
   sodipodi:docname="manuscripts-bonechi.svg"
   xmlns:inkscape="http://www.inkscape.org/namespaces/inkscape"
   xmlns:sodipodi="http://sodipodi.sourceforge.net/DTD/sodipodi-0.dtd"
   xmlns="http://www.w3.org/2000/svg"
   xmlns:svg="http://www.w3.org/2000/svg"><sodipodi:namedview
     id="namedview7"
     pagecolor="#ffffff"
     bordercolor="#000000"
     borderopacity="0.25"
     inkscape:showpageshadow="2"
     inkscape:pageopacity="0.0"
     inkscape:pagecheckerboard="0"
     inkscape:deskcolor="#d1d1d1"
     inkscape:document-units="mm"
     showgrid="false"
     inkscape:zoom="1"
     inkscape:cx="345.5"
     inkscape:cy="281.5"
     inkscape:window-width="1792"
     inkscape:window-height="995"
     inkscape:window-x="704"
     inkscape:window-y="87"
     inkscape:window-maximized="0"
     inkscape:current-layer="layer1" /><defs
     id="defs2" /><g
     inkscape:label="Livello 1"
     inkscape:groupmode="layer"
     id="layer1"><path
       style="fill:none;stroke:#000000;stroke-width:0.821;stroke-linejoin:round;stroke-dasharray:none;stop-color:#000000"
       d="m 69.818663,31.60403 c -0.05493,0.933854 -0.164797,3.295957 -0.05493,4.834069 0.109866,1.538113 0.109866,3.35089 0.109866,4.449542 0,1.098653 -0.05493,1.263451 -0.05493,2.307169 0,1.04372 0.05493,0.769056 0,2.746631 -0.05493,1.977572 -0.05493,3.511094 -0.05493,4.394609 0,0.883513 -0.05493,2.032504 0,3.955147 0.05493,1.92264 0.05493,2.41704 0.05493,4.01008 0,1.59305 0,2.80156 0,3.46075 0,0.65919 -0.274662,1.31839 0.82399,1.31839 1.098652,0 2.471967,-0.1648 5.877788,0.0549 3.405822,0.21973 5.102092,0.21973 7.306037,0.1648 2.203944,-0.0549 3.263054,0.0549 5.724007,-0.0549 2.460951,-0.10987 4.548392,-0.21974 6.690762,-0.1648 2.14237,0.0549 3.735417,0 4.394607,0.0549 0.65919,0.0549 0.60426,-0.4944 0.60426,-1.20852 0,-0.71412 -0.1648,-2.5269 -0.0549,-3.57062 0.10987,-1.04372 0.1648,-2.08744 0.10987,-3.62555 -0.0549,-1.53811 -0.21973,-3.076227 -0.10987,-4.229811 0.10987,-1.153585 0.21973,-2.252237 0.21973,-3.845281 0,-1.593047 -0.0549,-1.867709 -0.0549,-4.010082 0,-2.14237 0,-2.471966 0.0549,-3.790349 0.0549,-1.318382 0.10987,-3.021294 0.0549,-4.229811 -0.0549,-1.208517 0.0549,-3.021293 -0.10986,-3.295956 -0.1648,-0.274663 0.43946,-0.823989 -0.76906,-0.878921 -1.208515,-0.05493 -2.471965,-0.164799 -4.22981,-0.164799 -1.757842,0 -4.559405,0.219731 -6.262316,0.109865 -1.70291,-0.109865 -5.438328,-0.21973 -5.438328,-0.21973 0,0 -6.427115,-0.109865 -8.954014,-0.109865 -2.526901,0 -4.119946,0.05493 -4.614339,0.05493 -0.494394,0 -1.428248,0.109865 -1.373316,0.714124 0.05493,0.604258 0.109865,0.769056 0.109865,0.769056 z"
       id="path382" /><text
       xml:space="preserve"
       style="font-style:normal;font-variant:normal;font-weight:normal;font-stretch:normal;font-size:3.52778px;line-height:0.2;font-family:'Helvetica Neue';-inkscape-font-specification:'Helvetica Neue';text-decoration-color:#000000;fill:#000000;stroke:none;stroke-width:1.4;stroke-linejoin:round;stroke-dasharray:none;stop-color:#000000"
       x="72.275482"
       y="27.929155"
       id="text1100"><tspan
         sodipodi:role="line"
         id="tspan1098"
         style="font-style:normal;font-variant:normal;font-weight:normal;font-stretch:normal;font-size:3.52778px;font-family:'Helvetica Neue';-inkscape-font-specification:'Helvetica Neue';fill:#000000;stroke:none;stroke-width:1.4"
         x="72.275482"
         y="27.929155">Manuscript EBL<tspan
   style="font-size:65%;baseline-shift:sub"
   id="tspan574">2</tspan></tspan></text><text
       xml:space="preserve"
       style="font-style:normal;font-variant:normal;font-weight:normal;font-stretch:normal;font-size:3.52778px;line-height:0.2;font-family:'Helvetica Neue';-inkscape-font-specification:'Helvetica Neue';text-decoration-color:#000000;fill:#000000;stroke:none;stroke-width:1.4;stroke-linejoin:round;stroke-dasharray:none;stop-color:#000000"
       x="112.85094"
       y="70.312759"
       id="text1100-1"><tspan
         sodipodi:role="line"
         id="tspan1098-0"
         style="font-style:normal;font-variant:normal;font-weight:normal;font-stretch:normal;font-size:3.52778px;font-family:'Helvetica Neue';-inkscape-font-specification:'Helvetica Neue';fill:#000000;stroke:none;stroke-width:1.4"
         x="112.85094"
         y="70.312759">Manuscript EBL<tspan
   style="font-size:65%;baseline-shift:sub"
   id="tspan578">3b</tspan></tspan></text><text
       xml:space="preserve"
       style="font-style:normal;font-size:3.52778px;line-height:0.2;font-family:'Helvetica Neue';-inkscape-font-specification:'Helvetica Neue';text-decoration-color:#000000;fill:#000000;stroke:none;stroke-width:1.4;stroke-linejoin:round;stroke-dasharray:none;stop-color:#000000;font-weight:normal;font-stretch:normal;font-variant:normal"
       x="13.09918"
       y="6.5968833"
       id="text1100-0"><tspan
         sodipodi:role="line"
         id="tspan1098-7"
         style="font-style:normal;font-variant:normal;font-weight:normal;font-stretch:normal;font-size:3.52778px;font-family:'Helvetica Neue';-inkscape-font-specification:'Helvetica Neue';fill:#000000;stroke:none;stroke-width:1.4"
         x="13.09918"
         y="6.5968833">Source a (bilingual excerpt)</tspan></text><text
       xml:space="preserve"
       style="font-style:normal;font-size:3.52778px;line-height:0.2;font-family:'Helvetica Neue';-inkscape-font-specification:'Helvetica Neue';text-decoration-color:#000000;fill:#000000;stroke:none;stroke-width:1.4;stroke-linejoin:round;stroke-dasharray:none;stop-color:#000000;font-weight:normal;font-stretch:normal;font-variant:normal"
       x="13.09918"
       y="16.928364"
       id="text1100-0-8"><tspan
         sodipodi:role="line"
         id="tspan1098-7-6"
         style="font-style:normal;font-variant:normal;font-weight:normal;font-stretch:normal;font-size:3.52778px;font-family:'Helvetica Neue';-inkscape-font-specification:'Helvetica Neue';fill:#000000;stroke:none;stroke-width:1.4"
         x="13.09918"
         y="16.928364">Source b (bilingual excerpt)</tspan></text><text
       xml:space="preserve"
       style="font-style:normal;font-variant:normal;font-weight:normal;font-stretch:normal;font-size:3.52778px;line-height:0.2;font-family:'Helvetica Neue';-inkscape-font-specification:'Helvetica Neue';text-decoration-color:#000000;fill:#000000;stroke:none;stroke-width:1.4;stroke-linejoin:round;stroke-dasharray:none;stop-color:#000000"
       x="76.263802"
       y="47.795364"
       id="text1100-4"><tspan
         sodipodi:role="line"
         id="tspan1098-6"
         style="font-style:normal;font-variant:normal;font-weight:normal;font-stretch:normal;font-size:3.52778px;font-family:'Helvetica Neue';-inkscape-font-specification:'Helvetica Neue';fill:#000000;stroke:none;stroke-width:1.4"
         x="76.263802"
         y="47.795364">VE 1 – 1089</tspan></text><text
       xml:space="preserve"
       style="font-style:normal;font-variant:normal;font-weight:normal;font-stretch:normal;font-size:3.52778px;line-height:0.2;font-family:'Helvetica Neue';-inkscape-font-specification:'Helvetica Neue';text-decoration-color:#000000;fill:#000000;stroke:none;stroke-width:1.4;stroke-linejoin:round;stroke-dasharray:none;stop-color:#000000"
       x="114.60855"
       y="97.590134"
       id="text1100-4-7"><tspan
         sodipodi:role="line"
         id="tspan1098-6-0"
         style="font-style:normal;font-variant:normal;font-weight:normal;font-stretch:normal;font-size:3.52778px;font-family:'Helvetica Neue';-inkscape-font-specification:'Helvetica Neue';fill:#000000;stroke:none;stroke-width:1.4"
         x="114.60855"
         y="97.590134">VE 1090 – 1457</tspan></text><path
       style="fill:none;stroke:#000000;stroke-width:0.420564;stroke-linejoin:round;stroke-dasharray:none;stop-color:#000000"
       d="m 150.86412,31.60403 c -0.0549,0.933854 -0.1648,3.295957 -0.0549,4.834069 0.10986,1.538113 0.10986,3.35089 0.10986,4.449542 0,1.098653 -0.0549,1.263451 -0.0549,2.307169 0,1.04372 0.0549,0.769056 0,2.746631 -0.0549,1.977572 -0.0549,3.511094 -0.0549,4.394609 0,0.883513 -0.0549,2.032504 0,3.955147 0.0549,1.92264 0.0549,2.41704 0.0549,4.01008 0,1.59305 0,2.80156 0,3.46075 0,0.65919 -0.27466,1.31839 0.82399,1.31839 1.09865,0 2.47197,-0.1648 5.87779,0.0549 3.40582,0.21973 5.10209,0.21973 7.30604,0.1648 2.20394,-0.0549 3.26305,0.0549 5.724,-0.0549 2.46095,-0.10987 4.5484,-0.21974 6.69077,-0.1648 2.14237,0.0549 3.73541,0 4.39461,0.0549 0.65919,0.0549 0.60425,-0.4944 0.60425,-1.20852 0,-0.71412 -0.16479,-2.5269 -0.0549,-3.57062 0.10987,-1.04372 0.1648,-2.08744 0.10987,-3.62555 -0.0549,-1.53811 -0.21973,-3.076227 -0.10987,-4.229811 0.10987,-1.153585 0.21974,-2.252237 0.21974,-3.845281 0,-1.593047 -0.0549,-1.867709 -0.0549,-4.010082 0,-2.14237 0,-2.471966 0.0549,-3.790349 0.0549,-1.318382 0.10986,-3.021294 0.0549,-4.229811 -0.0549,-1.208517 0.0549,-3.021293 -0.10987,-3.295956 -0.1648,-0.274663 0.43946,-0.823989 -0.76906,-0.878921 -1.20851,-0.05493 -2.47196,-0.164799 -4.22981,-0.164799 -1.75784,0 -4.5594,0.219731 -6.26231,0.109865 -1.70291,-0.109865 -5.43833,-0.21973 -5.43833,-0.21973 0,0 -6.42712,-0.109865 -8.95402,-0.109865 -2.5269,0 -4.11994,0.05493 -4.61433,0.05493 -0.4944,0 -1.42825,0.109865 -1.37332,0.714124 0.0549,0.604258 0.10986,0.769056 0.10986,0.769056 z"
       id="path382-8" /><text
       xml:space="preserve"
       style="font-style:normal;font-variant:normal;font-weight:normal;font-stretch:normal;font-size:3.52778px;line-height:0.2;font-family:'Helvetica Neue';-inkscape-font-specification:'Helvetica Neue';text-decoration-color:#000000;fill:#000000;stroke:none;stroke-width:1.4;stroke-linejoin:round;stroke-dasharray:none;stop-color:#000000"
       x="153.29692"
       y="27.929157"
       id="text1100-3"><tspan
         sodipodi:role="line"
         id="tspan1098-5"
         style="font-style:normal;font-variant:normal;font-weight:normal;font-stretch:normal;font-size:3.52778px;font-family:'Helvetica Neue';-inkscape-font-specification:'Helvetica Neue';fill:#000000;stroke:none;stroke-width:1.4"
         x="153.29692"
         y="27.929157">Manuscript EBL<tspan
   style="font-size:65%;baseline-shift:sub"
   id="tspan580">4</tspan></tspan></text><path
       style="fill:none;stroke:#000000;stroke-width:0.420564;stroke-linejoin:round;stroke-dasharray:none;stop-color:#000000"
       d="m 111.10376,31.60403 c -0.0549,0.933854 -0.1648,3.295957 -0.0549,4.834069 0.10986,1.538113 0.10986,3.35089 0.10986,4.449542 0,1.098653 -0.0549,1.263451 -0.0549,2.307169 0,1.04372 0.0549,0.769056 0,2.746631 -0.0549,1.977572 -0.0549,3.511094 -0.0549,4.394609 0,0.883513 -0.0549,2.032504 0,3.955147 0.0549,1.92264 0.0549,2.41704 0.0549,4.01008 0,1.59305 0,2.80156 0,3.46075 0,0.65919 -0.27465,1.31839 0.82399,1.31839 1.09866,0 2.47197,-0.1648 5.87779,0.0549 3.40582,0.21973 5.10209,0.21973 7.30604,0.1648 2.20394,-0.0549 3.26305,0.0549 5.72401,-0.0549 2.46095,-0.10987 4.54839,-0.21974 6.69076,-0.1648 2.14237,0.0549 3.73542,0 4.39461,0.0549 0.65919,0.0549 0.60426,-0.4944 0.60426,-1.20852 0,-0.71412 -0.1648,-2.5269 -0.0549,-3.57062 0.10986,-1.04372 0.1648,-2.08744 0.10986,-3.62555 -0.0549,-1.53811 -0.21973,-3.076227 -0.10986,-4.229811 0.10986,-1.153585 0.21973,-2.252237 0.21973,-3.845281 0,-1.593047 -0.0549,-1.867709 -0.0549,-4.010082 0,-2.14237 0,-2.471966 0.0549,-3.790349 0.0549,-1.318382 0.10987,-3.021294 0.0549,-4.229811 -0.0549,-1.208517 0.0549,-3.021293 -0.10987,-3.295956 -0.16479,-0.274663 0.43947,-0.823989 -0.76905,-0.878921 -1.20852,-0.05493 -2.47197,-0.164799 -4.22981,-0.164799 -1.75784,0 -4.55941,0.219731 -6.26232,0.109865 -1.70291,-0.109865 -5.43833,-0.21973 -5.43833,-0.21973 0,0 -6.42711,-0.109865 -8.95401,-0.109865 -2.5269,0 -4.11995,0.05493 -4.61434,0.05493 -0.4944,0 -1.42825,0.109865 -1.37332,0.714124 0.0549,0.604258 0.10987,0.769056 0.10987,0.769056 z"
       id="path382-8-1" /><text
       xml:space="preserve"
       style="font-style:normal;font-variant:normal;font-weight:normal;font-stretch:normal;font-size:3.52778px;line-height:0.2;font-family:'Helvetica Neue';-inkscape-font-specification:'Helvetica Neue';text-decoration-color:#000000;fill:#000000;stroke:none;stroke-width:1.4;stroke-linejoin:round;stroke-dasharray:none;stop-color:#000000"
       x="112.89107"
       y="27.916544"
       id="text1100-3-5"><tspan
         sodipodi:role="line"
         id="tspan1098-5-5"
         style="font-style:normal;font-variant:normal;font-weight:normal;font-stretch:normal;font-size:3.52778px;font-family:'Helvetica Neue';-inkscape-font-specification:'Helvetica Neue';fill:#000000;stroke:none;stroke-width:1.4"
         x="112.89107"
         y="27.916544">Manuscript EBL<tspan
   style="font-size:65%;baseline-shift:sub"
   id="tspan576">3a</tspan></tspan></text><text
       xml:space="preserve"
       style="font-style:normal;font-variant:normal;font-weight:normal;font-stretch:normal;font-size:3.52778px;line-height:0.2;font-family:'Helvetica Neue';-inkscape-font-specification:'Helvetica Neue';text-decoration-color:#000000;fill:#000000;stroke:none;stroke-width:1.4;stroke-linejoin:round;stroke-dasharray:none;stop-color:#000000"
       x="26.024286"
       y="35.996037"
       id="text1100-3-5-8"><tspan
         sodipodi:role="line"
         id="tspan1098-5-5-4"
         style="font-style:normal;font-variant:normal;font-weight:normal;font-stretch:normal;font-size:3.52778px;font-family:'Helvetica Neue';-inkscape-font-specification:'Helvetica Neue';fill:#000000;stroke:none;stroke-width:1.4"
         x="26.024286"
         y="35.996037">Manuscript EBL<tspan
   style="font-size:65%;baseline-shift:sub"
   id="tspan564">1a</tspan></tspan></text><text
       xml:space="preserve"
       style="font-style:normal;font-variant:normal;font-weight:normal;font-stretch:normal;font-size:3.52778px;line-height:0.2;font-family:'Helvetica Neue';-inkscape-font-specification:'Helvetica Neue';text-decoration-color:#000000;fill:#000000;stroke:none;stroke-width:1.4;stroke-linejoin:round;stroke-dasharray:none;stop-color:#000000"
       x="26.024286"
       y="52.323341"
       id="text1100-3-5-8-8"><tspan
         sodipodi:role="line"
         id="tspan1098-5-5-4-4"
         style="font-style:normal;font-variant:normal;font-weight:normal;font-stretch:normal;font-size:3.52778px;font-family:'Helvetica Neue';-inkscape-font-specification:'Helvetica Neue';fill:#000000;stroke:none;stroke-width:1.4"
         x="26.024286"
         y="52.323341">Manuscript EBL<tspan
   style="font-size:65%;baseline-shift:sub"
   id="tspan572">1b</tspan></tspan></text><text
       xml:space="preserve"
       style="font-style:normal;font-variant:normal;font-weight:normal;font-stretch:normal;font-size:3.52778px;line-height:0.2;font-family:'Helvetica Neue';-inkscape-font-specification:'Helvetica Neue';text-decoration-color:#000000;fill:#000000;stroke:none;stroke-width:1.4;stroke-linejoin:round;stroke-dasharray:none;stop-color:#000000"
       x="26.024286"
       y="84.977943"
       id="text1100-3-5-8-3"><tspan
         sodipodi:role="line"
         id="tspan1098-5-5-4-7"
         style="font-style:normal;font-variant:normal;font-weight:normal;font-stretch:normal;font-size:3.52778px;font-family:'Helvetica Neue';-inkscape-font-specification:'Helvetica Neue';fill:#000000;stroke:none;stroke-width:1.4"
         x="26.024286"
         y="84.977943">Manuscript EBL<tspan
   style="font-size:65%;baseline-shift:sub"
   id="tspan568">1d</tspan></tspan></text><text
       xml:space="preserve"
       style="font-style:normal;font-variant:normal;font-weight:normal;font-stretch:normal;font-size:3.52778px;line-height:0.2;font-family:'Helvetica Neue';-inkscape-font-specification:'Helvetica Neue';text-decoration-color:#000000;fill:#000000;stroke:none;stroke-width:1.4;stroke-linejoin:round;stroke-dasharray:none;stop-color:#000000"
       x="26.024286"
       y="101.30527"
       id="text1100-3-5-8-9"><tspan
         sodipodi:role="line"
         id="tspan1098-5-5-4-75"
         style="font-style:normal;font-variant:normal;font-weight:normal;font-stretch:normal;font-size:3.52778px;font-family:'Helvetica Neue';-inkscape-font-specification:'Helvetica Neue';fill:#000000;stroke:none;stroke-width:1.4"
         x="26.024286"
         y="101.30527">Manuscript EBL<tspan
   style="font-size:65%;baseline-shift:sub"
   id="tspan566">1e</tspan></tspan></text><text
       xml:space="preserve"
       style="font-style:normal;font-variant:normal;font-weight:normal;font-stretch:normal;font-size:3.52778px;line-height:0.2;font-family:'Helvetica Neue';-inkscape-font-specification:'Helvetica Neue';text-decoration-color:#000000;fill:#000000;stroke:none;stroke-width:1.4;stroke-linejoin:round;stroke-dasharray:none;stop-color:#000000"
       x="26.024286"
       y="68.65065"
       id="text1100-3-5-8-0"><tspan
         sodipodi:role="line"
         id="tspan1098-5-5-4-9"
         style="font-style:normal;font-variant:normal;font-weight:normal;font-stretch:normal;font-size:3.52778px;font-family:'Helvetica Neue';-inkscape-font-specification:'Helvetica Neue';fill:#000000;stroke:none;stroke-width:1.4"
         x="26.024286"
         y="68.65065">Manuscript EBL<tspan
   style="font-size:65%;baseline-shift:sub"
   id="tspan570">1c</tspan></tspan></text><text
       xml:space="preserve"
       style="font-style:normal;font-variant:normal;font-weight:normal;font-stretch:normal;font-size:3.52778px;line-height:0.2;font-family:'Helvetica Neue';-inkscape-font-specification:'Helvetica Neue';text-decoration-color:#000000;fill:#000000;stroke:none;stroke-width:1.4;stroke-linejoin:round;stroke-dasharray:none;stop-color:#000000"
       x="117.5419"
       y="47.795364"
       id="text1100-4-2-5"><tspan
         sodipodi:role="line"
         id="tspan1098-6-2-8"
         style="font-style:normal;font-variant:normal;font-weight:normal;font-stretch:normal;font-size:3.52778px;font-family:'Helvetica Neue';-inkscape-font-specification:'Helvetica Neue';fill:#000000;stroke:none;stroke-width:1.4"
         x="117.5419"
         y="47.795364">VE 1 – 1090</tspan></text><text
       xml:space="preserve"
       style="font-style:normal;font-variant:normal;font-weight:normal;font-stretch:normal;font-size:3.52778px;line-height:0.2;font-family:'Helvetica Neue';-inkscape-font-specification:'Helvetica Neue';text-decoration-color:#000000;fill:#000000;stroke:none;stroke-width:1.4;stroke-linejoin:round;stroke-dasharray:none;stop-color:#000000"
       x="157.30226"
       y="47.795364"
       id="text1100-4-2-5-3"><tspan
         sodipodi:role="line"
         id="tspan1098-6-2-8-7"
         style="font-style:normal;font-variant:normal;font-weight:normal;font-stretch:normal;font-size:3.52778px;font-family:'Helvetica Neue';-inkscape-font-specification:'Helvetica Neue';fill:#000000;stroke:none;stroke-width:1.4"
         x="157.30226"
         y="47.795364">VE 1 – 1410</tspan></text><text
       xml:space="preserve"
       style="font-style:normal;font-variant:normal;font-weight:normal;font-stretch:normal;font-size:3.52778px;line-height:0.2;font-family:'Helvetica Neue';-inkscape-font-specification:'Helvetica Neue';text-decoration-color:#000000;fill:#000000;stroke:none;stroke-width:1.4;stroke-linejoin:round;stroke-dasharray:none;stop-color:#000000"
       x="26.091318"
       y="39.305096"
       id="text1100-4-2-5-1"><tspan
         sodipodi:role="line"
         id="tspan1098-6-2-8-9"
         style="font-style:normal;font-variant:normal;font-weight:normal;font-stretch:normal;font-size:3.52778px;font-family:'Helvetica Neue';-inkscape-font-specification:'Helvetica Neue';fill:#000000;stroke:none;stroke-width:1.4"
         x="26.091318"
         y="39.305096">VE 2 – 204</tspan></text><text
       xml:space="preserve"
       style="font-style:normal;font-variant:normal;font-weight:normal;font-stretch:normal;font-size:3.52778px;line-height:0.2;font-family:'Helvetica Neue';-inkscape-font-specification:'Helvetica Neue';text-decoration-color:#000000;fill:#000000;stroke:none;stroke-width:1.4;stroke-linejoin:round;stroke-dasharray:none;stop-color:#000000"
       x="26.091318"
       y="55.632401"
       id="text1100-4-2-5-2"><tspan
         sodipodi:role="line"
         id="tspan1098-6-2-8-4"
         style="font-style:normal;font-variant:normal;font-weight:normal;font-stretch:normal;font-size:3.52778px;font-family:'Helvetica Neue';-inkscape-font-specification:'Helvetica Neue';fill:#000000;stroke:none;stroke-width:1.4"
         x="26.091318"
         y="55.632401">VE 210 – 229</tspan></text><path
       style="fill:none;stroke:#000000;stroke-width:0.421;stroke-linejoin:round;stroke-dasharray:none;stop-color:#000000"
       d="m 11.054949,31.906647 c 0,0 -0.47201,2.985626 -0.22678,4.568792 0.25176,1.625306 0.31182,2.012639 0.39686,2.324457 0.085,0.311817 0.17009,1.530739 0.56694,1.899251 0.39686,0.368511 2.49454,0.963799 3.77016,1.020493 1.27561,0.05669 4.58661,-0.113388 5.22722,-0.170082 0.64061,-0.05669 2.48317,-0.538594 2.59656,-1.303964 0.11339,-0.765369 0.36851,-4.41198 0.25512,-5.763542 -0.11339,-1.351563 -0.11339,-4.271307 -1.02049,-4.639818 -0.90711,-0.368511 -2.52289,-0.992146 -4.13867,-0.907105 -1.61578,0.08504 -4.16701,-0.141735 -4.96073,0.510246 -0.79372,0.651982 -2.06933,0.04685 -2.46619,2.461272 z"
       id="path4954"
       sodipodi:nodetypes="cssssssssssc" /><path
       style="fill:none;stroke:#000000;stroke-width:0.421;stroke-linejoin:round;stroke-dasharray:none;stop-color:#000000"
       d="m 116.91673,77.942266 c 0,0 -0.7636,4.829977 -0.36688,7.391137 0.40729,2.62933 0.50445,3.25593 0.64202,3.76038 0.13751,0.50444 0.27516,2.47634 0.91717,3.0725 0.64202,0.59615 4.03553,1.559178 6.09915,1.650908 2.06362,0.0917 7.41997,-0.183438 8.45632,-0.275158 1.03634,-0.0917 4.01713,-0.87131 4.20057,-2.10948 0.18343,-1.23817 0.59615,-7.13746 0.41272,-9.32394 -0.18344,-2.18649 -0.18344,-6.909887 -1.6509,-7.506037 -1.46747,-0.59616 -4.08139,-1.60504 -6.69531,-1.46747 -2.61392,0.13757 -6.74116,-0.22929 -8.0252,0.82545 -1.28403,1.05474 -3.34765,0.0758 -3.98966,3.98171 z"
       id="path4954-1"
       sodipodi:nodetypes="cssssssssssc" /><path
       style="fill:none;stroke:#000000;stroke-width:0.421;stroke-linejoin:round;stroke-dasharray:none;stop-color:#000000"
       d="m 3.7309894,4.0156671 c 0,0 -0.258417,1.634576 -0.124158,2.50133 0.137834,0.8898254 0.170716,1.1018834 0.217274,1.2725984 0.04654,0.1707137 0.09312,0.8380504 0.310389,1.0398044 0.217273,0.2017527 1.365715,0.5276617 2.064093,0.5587007 0.6983724,0.03104 2.5110835,-0.06208 2.8618062,-0.09312 0.350722,-0.03104 1.3594894,-0.29487 1.4215684,-0.7138957 0.06208,-0.4190257 0.201752,-2.4154778 0.139673,-3.1554338 -0.06208,-0.739956 -0.06208,-2.338462 -0.5587,-2.540215 -0.4966257,-0.201753 -1.3812351,-0.543182 -2.2658435,-0.496623 -0.8846097,0.04656 -2.2813611,-0.0776 -2.7159081,0.27935 -0.434547,0.356948 -1.13292,0.02565 -1.350194,1.347501 z"
       id="path4954-9"
       sodipodi:nodetypes="cssssssssssc" /><path
       style="fill:none;stroke:#000000;stroke-width:0.421;stroke-linejoin:round;stroke-dasharray:none;stop-color:#000000"
       d="m 3.7309894,14.322454 c 0,0 -0.258417,1.634576 -0.124158,2.50133 0.137834,0.889825 0.170716,1.101883 0.217274,1.272598 0.04654,0.170714 0.09312,0.838051 0.310389,1.039805 0.217273,0.201753 1.365715,0.527662 2.064093,0.558701 0.6983724,0.03104 2.5110835,-0.06208 2.8618062,-0.09312 0.350722,-0.03104 1.3594894,-0.29487 1.4215684,-0.713896 0.06208,-0.419026 0.201752,-2.415478 0.139673,-3.155434 -0.06208,-0.739956 -0.06208,-2.338462 -0.5587,-2.540215 C 9.5663093,12.99047 8.6816999,12.649041 7.7970915,12.6956 6.9124818,12.74216 5.5157304,12.618 5.0811834,12.97495 c -0.434547,0.356948 -1.13292,0.02565 -1.350194,1.347502 z"
       id="path4954-9-4"
       sodipodi:nodetypes="cssssssssssc" /><path
       style="fill:none;stroke:#000000;stroke-width:0.421;stroke-linejoin:round;stroke-dasharray:none;stop-color:#000000"
       d="m 11.054949,48.230422 c 0,0 -0.47201,2.985626 -0.22678,4.568793 0.25176,1.625305 0.31182,2.012639 0.39686,2.324456 0.085,0.311818 0.17009,1.53074 0.56694,1.899251 0.39686,0.368512 2.49454,0.9638 3.77016,1.020493 1.27561,0.05669 4.58661,-0.113388 5.22722,-0.170082 0.64061,-0.05669 2.48317,-0.538594 2.59656,-1.303964 0.11339,-0.765369 0.36851,-4.41198 0.25512,-5.763542 -0.11339,-1.351563 -0.11339,-4.271307 -1.02049,-4.639818 -0.90711,-0.368511 -2.52289,-0.992146 -4.13867,-0.907105 -1.61578,0.08504 -4.16701,-0.141735 -4.96073,0.510247 -0.79372,0.651981 -2.06933,0.04685 -2.46619,2.461271 z"
       id="path4954-6"
       sodipodi:nodetypes="cssssssssssc" /><path
       style="fill:none;stroke:#000000;stroke-width:0.421;stroke-linejoin:round;stroke-dasharray:none;stop-color:#000000"
       d="m 11.054949,64.554197 c 0,0 -0.47201,2.985626 -0.22678,4.568792 0.25176,1.625306 0.31182,2.012639 0.39686,2.324457 0.085,0.311817 0.17009,1.530739 0.56694,1.899251 0.39686,0.368511 2.49454,0.963799 3.77016,1.020493 1.27561,0.05669 4.58661,-0.113388 5.22722,-0.170082 0.64061,-0.05669 2.48317,-0.538594 2.59656,-1.303964 0.11339,-0.765369 0.36851,-4.41198 0.25512,-5.763542 -0.11339,-1.351563 -0.11339,-4.271307 -1.02049,-4.639818 -0.90711,-0.368512 -2.52289,-0.992147 -4.13867,-0.907105 -1.61578,0.08504 -4.16701,-0.141736 -4.96073,0.510246 -0.79372,0.651982 -2.06933,0.04685 -2.46619,2.461272 z"
       id="path4954-3"
       sodipodi:nodetypes="cssssssssssc" /><path
       style="fill:none;stroke:#000000;stroke-width:0.421;stroke-linejoin:round;stroke-dasharray:none;stop-color:#000000"
       d="m 11.054949,80.877966 c 0,0 -0.47201,2.98562 -0.22678,4.56878 0.25176,1.62531 0.31182,2.01264 0.39686,2.32446 0.085,0.31182 0.17009,1.53074 0.56694,1.89925 0.39686,0.36851 2.49454,0.9638 3.77016,1.0205 1.27561,0.0567 4.58661,-0.11339 5.22722,-0.17009 0.64061,-0.0567 2.48317,-0.53859 2.59656,-1.30396 0.11339,-0.76537 0.36851,-4.41198 0.25512,-5.76354 -0.11339,-1.35156 -0.11339,-4.271307 -1.02049,-4.639817 -0.90711,-0.368507 -2.52289,-0.992134 -4.13867,-0.907094 -1.61578,0.085 -4.16701,-0.14174 -4.96073,0.510237 -0.79372,0.651987 -2.06933,0.0469 -2.46619,2.461274 z"
       id="path4954-63"
       sodipodi:nodetypes="cssssssssssc" /><path
       style="fill:none;stroke:#000000;stroke-width:0.421;stroke-linejoin:round;stroke-dasharray:none;stop-color:#000000"
       d="m 11.054949,97.201722 c 0,0 -0.47201,2.985618 -0.22678,4.568788 0.25176,1.62531 0.31182,2.01264 0.39686,2.32446 0.085,0.31181 0.17009,1.53074 0.56694,1.89925 0.39686,0.36851 2.49454,0.9638 3.77016,1.02049 1.27561,0.0567 4.58661,-0.11339 5.22722,-0.17008 0.64061,-0.0567 2.48317,-0.5386 2.59656,-1.30397 0.11339,-0.76536 0.36851,-4.41198 0.25512,-5.763541 -0.11339,-1.35156 -0.11339,-4.271288 -1.02049,-4.639805 -0.90711,-0.36851 -2.52289,-0.992138 -4.13867,-0.907098 -1.61578,0.085 -4.16701,-0.14174 -4.96073,0.51025 -0.79372,0.651975 -2.06933,0.0469 -2.46619,2.461256 z"
       id="path4954-0"
       sodipodi:nodetypes="cssssssssssc" /><text
       xml:space="preserve"
       style="font-style:normal;font-variant:normal;font-weight:normal;font-stretch:normal;font-size:3.52778px;line-height:0.2;font-family:'Helvetica Neue';-inkscape-font-specification:'Helvetica Neue';text-decoration-color:#000000;fill:#000000;stroke:none;stroke-width:1.4;stroke-linejoin:round;stroke-dasharray:none;stop-color:#000000"
       x="26.091318"
       y="71.959709"
       id="text1100-4-2-5-5"><tspan
         sodipodi:role="line"
         id="tspan1098-6-2-8-8"
         style="font-style:normal;font-variant:normal;font-weight:normal;font-stretch:normal;font-size:3.52778px;font-family:'Helvetica Neue';-inkscape-font-specification:'Helvetica Neue';fill:#000000;stroke:none;stroke-width:1.4"
         x="26.091318"
         y="71.959709">VE 340 – 423</tspan></text><text
       xml:space="preserve"
       style="font-style:normal;font-variant:normal;font-weight:normal;font-stretch:normal;font-size:3.52778px;line-height:0.2;font-family:'Helvetica Neue';-inkscape-font-specification:'Helvetica Neue';text-decoration-color:#000000;fill:#000000;stroke:none;stroke-width:1.4;stroke-linejoin:round;stroke-dasharray:none;stop-color:#000000"
       x="26.091318"
       y="88.28701"
       id="text1100-4-2-5-6"><tspan
         sodipodi:role="line"
         id="tspan1098-6-2-8-2"
         style="font-style:normal;font-variant:normal;font-weight:normal;font-stretch:normal;font-size:3.52778px;font-family:'Helvetica Neue';-inkscape-font-specification:'Helvetica Neue';fill:#000000;stroke:none;stroke-width:1.4"
         x="26.091318"
         y="88.28701">VE 458 – 575</tspan></text><text
       xml:space="preserve"
       style="font-style:normal;font-variant:normal;font-weight:normal;font-stretch:normal;font-size:3.52778px;line-height:0.2;font-family:'Helvetica Neue';-inkscape-font-specification:'Helvetica Neue';text-decoration-color:#000000;fill:#000000;stroke:none;stroke-width:1.4;stroke-linejoin:round;stroke-dasharray:none;stop-color:#000000"
       x="26.091318"
       y="104.61431"
       id="text1100-4-2-5-51"><tspan
         sodipodi:role="line"
         id="tspan1098-6-2-8-3"
         style="font-style:normal;font-variant:normal;font-weight:normal;font-stretch:normal;font-size:3.52778px;font-family:'Helvetica Neue';-inkscape-font-specification:'Helvetica Neue';fill:#000000;stroke:none;stroke-width:1.4"
         x="26.091318"
         y="104.61431">VE 577 – 875</tspan></text></g></svg>
